# xmcd
#
# Track frame offsets:
#	150
#	13658
#	30417
#	49268
#	63165
#	81844
#	98008
#	113691
#	128406
#	143117
#	157811
#	178782
#
# Disc length: 2566 seconds
#
# Revision: 1
# Processed by: cddbd v1.5PL3 Copyright (c) Steve Scherf et al.
# Submitted via: audiograbber 1.83.01
#
DISCID=8a0a040c
DTITLE=Isar Rider - Heid is a Tag!
DYEAR=2003
DGENRE=Pop
TTITLE0=Be so am Weda
TTITLE1=Pepe
TTITLE2=Heid is a Tag
TTITLE3=Mei Oma
TTITLE4=Du g'hörst zu mia
TTITLE5=Da deama uns ned owe
TTITLE6=Es muaß a Werk vom Herrgott sei
TTITLE7=Fünf Bier
TTITLE8=Würschtlstand
TTITLE9=Koane Nerven
TTITLE10=Isar Rider
TTITLE11=Zuppa Romana
EXTD=
EXTT0=
EXTT1=
EXTT2=
EXTT3=
EXTT4=
EXTT5=
EXTT6=
EXTT7=
EXTT8=
EXTT9=
EXTT10=
EXTT11=
PLAYORDER=
